<svg xmlns="http://www.w3.org/2000/svg" xmlns:xlink="http://www.w3.org/1999/xlink" width="1080" zoomAndPan="magnify" viewBox="0 0 810 809.999993" height="1080" preserveAspectRatio="xMidYMid meet" version="1.0"><defs><clipPath id="18fd87dc16"><path d="M 243 350.804688 L 567 350.804688 L 567 409 L 243 409 Z M 243 350.804688 " clip-rule="nonzero"/></clipPath><clipPath id="f286856a35"><path d="M 279 414 L 443 414 L 443 459.554688 L 279 459.554688 Z M 279 414 " clip-rule="nonzero"/></clipPath></defs><g clip-path="url(#18fd87dc16)"><path fill="#000000" d="M 259.007812 408.46875 C 255.875 408.46875 253.113281 407.785156 250.730469 406.410156 C 248.347656 404.996094 246.492188 403.046875 245.167969 400.5625 C 243.84375 398.035156 243.183594 395.136719 243.183594 391.859375 C 243.183594 387.917969 244.152344 384.464844 246.097656 381.496094 C 248.082031 378.527344 250.882812 376.246094 254.503906 374.652344 C 258.167969 373.054688 262.449219 372.261719 267.351562 372.261719 C 269.605469 372.261719 271.433594 372.414062 272.847656 372.722656 L 272.847656 371.328125 C 272.847656 367.964844 272.230469 365.460938 270.992188 363.820312 C 269.757812 362.136719 267.882812 361.292969 265.363281 361.292969 C 261.304688 361.292969 258.699219 363.441406 257.550781 367.738281 C 257.195312 368.976562 256.46875 369.507812 255.363281 369.332031 L 246.359375 367.738281 C 245.695312 367.605469 245.234375 367.316406 244.96875 366.871094 C 244.746094 366.429688 244.722656 365.832031 244.902344 365.078125 C 246.046875 360.558594 248.480469 357.0625 252.1875 354.582031 C 255.9375 352.066406 260.644531 350.804688 266.292969 350.804688 C 273 350.804688 278.097656 352.617188 281.589844 356.25 C 285.121094 359.882812 286.886719 365.175781 286.886719 372.128906 L 286.886719 405.546875 C 286.886719 406.03125 286.710938 406.453125 286.355469 406.808594 C 286.042969 407.121094 285.648438 407.273438 285.160156 407.273438 L 276.550781 407.273438 C 275.492188 407.273438 274.832031 406.695312 274.566406 405.546875 L 273.242188 399.300781 L 272.710938 399.300781 C 271.515625 402.222656 269.730469 404.480469 267.347656 406.074219 C 265.007812 407.671875 262.226562 408.464844 259.003906 408.464844 Z M 257.621094 390.269531 C 257.621094 392.617188 258.214844 394.5 259.40625 395.917969 C 260.644531 397.289062 262.296875 397.976562 264.371094 397.976562 C 267.109375 397.976562 269.207031 396.753906 270.664062 394.320312 C 272.117188 391.84375 272.847656 388.296875 272.847656 383.691406 L 272.847656 380.167969 C 271.613281 379.945312 270.445312 379.835938 269.339844 379.835938 C 265.71875 379.835938 262.847656 380.789062 260.730469 382.695312 C 258.65625 384.554688 257.621094 387.078125 257.621094 390.269531 Z M 295.09375 353.726562 C 295.09375 353.242188 295.25 352.839844 295.554688 352.53125 C 295.90625 352.175781 296.324219 351.996094 296.8125 351.996094 L 305.550781 351.996094 C 306.035156 351.996094 306.4375 352.148438 306.746094 352.460938 C 307.097656 352.769531 307.320312 353.191406 307.410156 353.722656 L 308.734375 360.234375 L 309.265625 360.234375 C 310.457031 357.179688 312.15625 354.855469 314.359375 353.261719 C 316.613281 351.621094 319.261719 350.804688 322.308594 350.804688 C 325.574219 350.804688 328.375 351.667969 330.714844 353.394531 C 333.097656 355.121094 334.933594 357.582031 336.210938 360.769531 L 336.746094 360.769531 C 338.6875 357.402344 340.871094 354.898438 343.300781 353.261719 C 345.726562 351.621094 348.441406 350.804688 351.441406 350.804688 C 354.710938 350.804688 357.53125 351.691406 359.921875 353.460938 C 362.347656 355.230469 364.203125 357.757812 365.484375 361.035156 C 366.765625 364.3125 367.40625 368.1875 367.40625 372.664062 L 367.40625 405.550781 C 367.40625 406.035156 367.226562 406.460938 366.871094 406.8125 C 366.5625 407.125 366.167969 407.277344 365.679688 407.277344 L 355.085938 407.277344 C 354.601562 407.277344 354.179688 407.125 353.824219 406.8125 C 353.515625 406.460938 353.363281 406.039062 353.363281 405.550781 L 353.363281 373.726562 C 353.363281 370.492188 352.746094 368.011719 351.507812 366.285156 C 350.269531 364.558594 348.484375 363.695312 346.144531 363.695312 C 343.582031 363.695312 341.617188 364.710938 340.25 366.75 C 338.925781 368.785156 338.265625 371.730469 338.265625 375.585938 L 338.265625 405.550781 C 338.265625 406.035156 338.085938 406.460938 337.734375 406.8125 C 337.421875 407.125 337.027344 407.277344 336.539062 407.277344 L 325.945312 407.277344 C 325.460938 407.277344 325.039062 407.125 324.6875 406.8125 C 324.375 406.460938 324.222656 406.039062 324.222656 405.550781 L 324.222656 373.726562 C 324.222656 370.492188 323.605469 368.011719 322.367188 366.285156 C 321.132812 364.558594 319.34375 363.695312 317.003906 363.695312 C 314.445312 363.695312 312.480469 364.710938 311.109375 366.75 C 309.785156 368.785156 309.125 371.730469 309.125 375.585938 L 309.125 405.550781 C 309.125 406.035156 308.949219 406.460938 308.59375 406.8125 C 308.285156 407.125 307.886719 407.277344 307.398438 407.277344 L 296.804688 407.277344 C 296.320312 407.277344 295.898438 407.125 295.546875 406.8125 C 295.238281 406.460938 295.085938 406.039062 295.085938 405.550781 L 295.085938 353.726562 Z M 374.289062 391.859375 C 374.289062 387.917969 375.257812 384.464844 377.203125 381.496094 C 379.1875 378.527344 381.988281 376.246094 385.609375 374.652344 C 389.273438 373.054688 393.554688 372.261719 398.457031 372.261719 C 400.707031 372.261719 402.539062 372.414062 403.953125 372.722656 L 403.953125 371.328125 C 403.953125 367.964844 403.335938 365.460938 402.097656 363.820312 C 400.863281 362.136719 398.988281 361.292969 396.46875 361.292969 C 392.410156 361.292969 389.804688 363.441406 388.65625 367.738281 C 388.300781 368.976562 387.574219 369.507812 386.46875 369.332031 L 377.464844 367.738281 C 376.800781 367.605469 376.339844 367.316406 376.074219 366.871094 C 375.851562 366.429688 375.828125 365.832031 376.007812 365.078125 C 377.152344 360.558594 379.585938 357.0625 383.292969 354.582031 C 387.046875 352.066406 391.746094 350.804688 397.398438 350.804688 C 404.105469 350.804688 409.203125 352.617188 412.691406 356.25 C 416.226562 359.882812 417.992188 365.175781 417.992188 372.128906 L 417.992188 405.546875 C 417.992188 406.03125 417.8125 406.453125 417.460938 406.808594 C 417.148438 407.121094 416.753906 407.273438 416.265625 407.273438 L 407.65625 407.273438 C 406.597656 407.273438 405.9375 406.695312 405.671875 405.546875 L 404.347656 399.300781 L 403.816406 399.300781 C 402.621094 402.222656 400.835938 404.480469 398.453125 406.074219 C 396.113281 407.671875 393.332031 408.464844 390.109375 408.464844 C 386.886719 408.464844 384.214844 407.78125 381.832031 406.40625 C 379.449219 404.992188 377.59375 403.042969 376.269531 400.558594 C 374.945312 398.03125 374.28125 395.132812 374.28125 391.855469 Z M 388.722656 390.269531 C 388.722656 392.617188 389.320312 394.5 390.511719 395.917969 C 391.746094 397.289062 393.402344 397.976562 395.476562 397.976562 C 398.210938 397.976562 400.3125 396.753906 401.765625 394.320312 C 403.222656 391.84375 403.953125 388.296875 403.953125 383.691406 L 403.953125 380.167969 C 402.71875 379.945312 401.550781 379.835938 400.441406 379.835938 C 396.824219 379.835938 393.953125 380.789062 391.835938 382.695312 C 389.761719 384.554688 388.722656 387.078125 388.722656 390.269531 Z M 425.144531 397.507812 C 425.144531 396.53125 425.410156 395.695312 425.9375 394.980469 L 448.582031 363.15625 L 427.390625 363.15625 C 426.910156 363.15625 426.484375 363.003906 426.132812 362.691406 C 425.824219 362.339844 425.671875 361.917969 425.671875 361.429688 L 425.671875 353.726562 C 425.671875 353.242188 425.828125 352.839844 426.132812 352.53125 C 426.484375 352.175781 426.902344 351.996094 427.390625 351.996094 L 462.222656 351.996094 C 462.707031 351.996094 463.105469 352.175781 463.414062 352.53125 C 463.765625 352.839844 463.945312 353.238281 463.945312 353.726562 L 463.945312 361.765625 C 463.945312 362.742188 463.679688 363.578125 463.152344 364.292969 L 442.625 392.59375 C 443.863281 392.371094 445.121094 392.261719 446.398438 392.261719 C 449.578125 392.261719 452.488281 392.550781 455.136719 393.128906 C 457.828125 393.660156 460.609375 394.542969 463.480469 395.785156 C 464.496094 396.226562 465.003906 396.984375 465.003906 398.046875 L 465.003906 405.6875 C 465.003906 406.394531 464.78125 406.882812 464.34375 407.144531 C 463.902344 407.367188 463.347656 407.347656 462.6875 407.078125 C 459.375 405.839844 456.441406 404.976562 453.878906 404.488281 C 451.359375 403.953125 448.601562 403.691406 445.601562 403.691406 C 442.601562 403.691406 439.730469 403.960938 436.863281 404.488281 C 434.039062 405.019531 430.902344 405.882812 427.460938 407.078125 C 426.800781 407.304688 426.246094 407.304688 425.804688 407.078125 C 425.367188 406.8125 425.144531 406.351562 425.144531 405.6875 Z M 467.914062 379.640625 C 467.914062 374.238281 468.953125 369.339844 471.023438 364.957031 C 473.097656 360.527344 475.949219 357.070312 479.566406 354.59375 C 483.234375 352.066406 487.296875 350.804688 491.753906 350.804688 C 496.210938 350.804688 500.316406 352.066406 503.9375 354.589844 C 507.601562 357.066406 510.472656 360.523438 512.546875 364.953125 C 514.664062 369.335938 515.726562 374.230469 515.726562 379.632812 C 515.726562 385.039062 514.667969 389.953125 512.546875 394.382812 C 510.472656 398.765625 507.601562 402.222656 503.9375 404.746094 C 500.316406 407.222656 496.257812 408.464844 491.753906 408.464844 C 487.25 408.464844 483.230469 407.222656 479.566406 404.746094 C 475.949219 402.21875 473.101562 398.765625 471.023438 394.382812 C 468.953125 389.953125 467.914062 385.039062 467.914062 379.632812 Z M 482.484375 379.640625 C 482.484375 385.265625 483.277344 389.605469 484.867188 392.660156 C 486.457031 395.671875 488.75 397.179688 491.753906 397.179688 C 494.753906 397.179688 497.070312 395.671875 498.707031 392.660156 C 500.339844 389.605469 501.152344 385.265625 501.152344 379.640625 C 501.152344 374.011719 500.339844 369.695312 498.707031 366.683594 C 497.070312 363.628906 494.753906 362.097656 491.753906 362.097656 C 488.75 362.097656 486.457031 363.628906 484.867188 366.683594 C 483.273438 369.695312 482.484375 374.011719 482.484375 379.640625 Z M 522.875 353.726562 C 522.875 353.242188 523.03125 352.839844 523.335938 352.53125 C 523.691406 352.175781 524.109375 351.996094 524.59375 351.996094 L 533.335938 351.996094 C 533.816406 351.996094 534.21875 352.148438 534.527344 352.460938 C 534.882812 352.769531 535.101562 353.191406 535.191406 353.722656 L 536.515625 360.234375 L 537.046875 360.234375 C 538.238281 357.226562 539.980469 354.898438 542.277344 353.261719 C 544.617188 351.621094 547.351562 350.804688 550.484375 350.804688 C 553.839844 350.804688 556.734375 351.691406 559.160156 353.460938 C 561.632812 355.230469 563.527344 357.757812 564.851562 361.035156 C 566.175781 364.3125 566.839844 368.1875 566.839844 372.664062 L 566.839844 405.550781 C 566.839844 406.035156 566.660156 406.460938 566.308594 406.8125 C 566 407.125 565.601562 407.277344 565.113281 407.277344 L 554.519531 407.277344 C 554.035156 407.277344 553.613281 407.125 553.261719 406.8125 C 552.953125 406.460938 552.800781 406.039062 552.800781 405.550781 L 552.800781 373.726562 C 552.800781 370.492188 552.136719 368.011719 550.8125 366.285156 C 549.488281 364.558594 547.609375 363.695312 545.183594 363.695312 C 542.492188 363.695312 540.441406 364.710938 539.023438 366.75 C 537.613281 368.785156 536.90625 371.730469 536.90625 375.585938 L 536.90625 405.550781 C 536.90625 406.035156 536.734375 406.460938 536.375 406.8125 C 536.066406 407.125 535.667969 407.277344 535.183594 407.277344 L 524.585938 407.277344 C 524.101562 407.277344 523.679688 407.125 523.328125 406.8125 C 523.019531 406.460938 522.867188 406.039062 522.867188 405.550781 L 522.867188 353.726562 Z M 522.875 353.726562 " fill-opacity="1" fill-rule="nonzero"/></g><g clip-path="url(#f286856a35)"><path fill="#ff6201" d="M 279.996094 414.914062 C 279.15625 415.578125 278.984375 416.683594 279.464844 418.234375 C 279.90625 419.605469 280.945312 421.3125 282.578125 423.347656 C 289.15625 431.5 296.988281 438.277344 306.085938 443.679688 C 315.175781 449.082031 324.914062 453.066406 335.285156 455.636719 C 345.699219 458.25 356.339844 459.558594 367.199219 459.558594 C 381.105469 459.558594 394.347656 457.519531 406.929688 453.449219 C 419.511719 449.417969 430.019531 443.75 438.449219 436.441406 C 441.40625 433.824219 442.882812 431.746094 442.882812 430.195312 C 442.882812 429.617188 442.640625 429.042969 442.15625 428.46875 C 441.492188 427.804688 440.699219 427.578125 439.773438 427.804688 C 438.84375 428.027344 437.542969 428.578125 435.863281 429.464844 C 427.789062 433.714844 417.941406 437.105469 406.332031 439.628906 C 394.765625 442.199219 382.695312 443.484375 370.113281 443.484375 C 354.53125 443.484375 339.480469 441.363281 324.957031 437.109375 C 310.433594 432.855469 297.5625 426.210938 286.355469 417.175781 C 284.71875 415.890625 283.394531 415.074219 282.382812 414.71875 C 281.410156 414.367188 280.617188 414.433594 279.996094 414.921875 Z M 279.996094 414.914062 " fill-opacity="1" fill-rule="nonzero"/></g><path fill="#ff6201" d="M 427.125 418.238281 C 426.199219 419.125 425.953125 420.054688 426.398438 421.027344 C 426.707031 421.734375 427.304688 422.132812 428.183594 422.226562 C 429.070312 422.355469 430.324219 422.269531 431.957031 421.957031 C 434.605469 421.382812 437.363281 420.984375 440.234375 420.761719 C 443.105469 420.585938 445.597656 420.628906 447.71875 420.890625 C 449.835938 421.203125 451.160156 421.734375 451.691406 422.488281 C 452.484375 423.683594 452.195312 426.207031 450.828125 430.0625 C 449.503906 433.917969 447.695312 437.660156 445.402344 441.292969 C 444.515625 442.75 443.988281 443.90625 443.8125 444.746094 C 443.636719 445.585938 443.855469 446.296875 444.472656 446.867188 C 444.871094 447.265625 445.308594 447.46875 445.796875 447.46875 C 447.078125 447.46875 448.933594 446.339844 451.359375 444.082031 C 455.730469 440.273438 458.796875 435.753906 460.566406 430.527344 C 461.535156 427.824219 462.132812 424.988281 462.351562 422.019531 C 462.574219 419.050781 462.242188 416.929688 461.359375 415.644531 C 460.523438 414.402344 458.667969 413.382812 455.796875 412.585938 C 452.972656 411.792969 450.125 411.390625 447.253906 411.390625 C 441.644531 411.390625 436.328125 412.71875 431.296875 415.375 C 429.4375 416.394531 428.050781 417.347656 427.121094 418.234375 Z M 427.125 418.238281 " fill-opacity="1" fill-rule="nonzero"/></svg>