<svg xmlns="http://www.w3.org/2000/svg" xmlns:xlink="http://www.w3.org/1999/xlink" width="1080" zoomAndPan="magnify" viewBox="0 0 810 809.999993" height="1080" preserveAspectRatio="xMidYMid meet" version="1.0"><defs><clipPath id="26cbd11a11"><path d="M 232.949219 203.546875 L 556.949219 203.546875 L 556.949219 527.546875 L 232.949219 527.546875 Z M 232.949219 203.546875 " clip-rule="nonzero"/></clipPath></defs><g clip-path="url(#26cbd11a11)"><path fill="#000000" d="M 557.007812 365.578125 C 557.007812 368.230469 556.941406 370.878906 556.8125 373.527344 C 556.679688 376.175781 556.488281 378.820312 556.226562 381.457031 C 555.964844 384.097656 555.640625 386.726562 555.253906 389.351562 C 554.863281 391.972656 554.410156 394.585938 553.894531 397.1875 C 553.375 399.789062 552.796875 402.375 552.152344 404.945312 C 551.507812 407.519531 550.800781 410.074219 550.03125 412.613281 C 549.261719 415.148438 548.429688 417.664062 547.535156 420.164062 C 546.640625 422.660156 545.6875 425.132812 544.671875 427.582031 C 543.65625 430.03125 542.582031 432.457031 541.449219 434.851562 C 540.316406 437.25 539.125 439.617188 537.875 441.957031 C 536.625 444.296875 535.316406 446.601562 533.953125 448.875 C 532.589844 451.152344 531.171875 453.390625 529.699219 455.59375 C 528.226562 457.800781 526.699219 459.96875 525.121094 462.097656 C 523.539062 464.226562 521.910156 466.316406 520.226562 468.367188 C 518.546875 470.417969 516.8125 472.425781 515.035156 474.390625 C 513.253906 476.355469 511.425781 478.273438 509.550781 480.148438 C 507.675781 482.023438 505.753906 483.851562 503.789062 485.632812 C 501.824219 487.414062 499.816406 489.144531 497.769531 490.828125 C 495.71875 492.507812 493.628906 494.140625 491.5 495.71875 C 489.367188 497.300781 487.199219 498.824219 484.996094 500.300781 C 482.792969 501.773438 480.550781 503.191406 478.277344 504.554688 C 476.003906 505.917969 473.695312 507.222656 471.359375 508.472656 C 469.019531 509.722656 466.652344 510.914062 464.253906 512.050781 C 461.855469 513.183594 459.433594 514.257812 456.984375 515.273438 C 454.535156 516.285156 452.058594 517.242188 449.5625 518.132812 C 447.066406 519.027344 444.550781 519.859375 442.011719 520.628906 C 439.476562 521.398438 436.921875 522.105469 434.347656 522.75 C 431.777344 523.394531 429.1875 523.976562 426.589844 524.492188 C 423.988281 525.007812 421.375 525.460938 418.753906 525.851562 C 416.128906 526.242188 413.5 526.566406 410.859375 526.824219 C 408.21875 527.085938 405.578125 527.28125 402.929688 527.410156 C 400.28125 527.539062 397.628906 527.605469 394.976562 527.605469 C 392.328125 527.605469 389.675781 527.539062 387.027344 527.410156 C 384.378906 527.28125 381.734375 527.085938 379.097656 526.824219 C 376.457031 526.566406 373.828125 526.242188 371.203125 525.851562 C 368.582031 525.460938 365.96875 525.007812 363.367188 524.492188 C 360.765625 523.976562 358.179688 523.394531 355.609375 522.75 C 353.035156 522.105469 350.480469 521.398438 347.945312 520.628906 C 345.40625 519.859375 342.890625 519.027344 340.390625 518.132812 C 337.894531 517.242188 335.421875 516.285156 332.972656 515.273438 C 330.523438 514.257812 328.097656 513.183594 325.703125 512.050781 C 323.304688 510.914062 320.9375 509.722656 318.597656 508.472656 C 316.257812 507.222656 313.953125 505.917969 311.679688 504.554688 C 309.402344 503.191406 307.164062 501.773438 304.960938 500.300781 C 302.753906 498.824219 300.585938 497.300781 298.457031 495.71875 C 296.328125 494.140625 294.238281 492.507812 292.1875 490.828125 C 290.136719 489.144531 288.132812 487.414062 286.167969 485.632812 C 284.203125 483.851562 282.28125 482.023438 280.40625 480.148438 C 278.53125 478.273438 276.703125 476.355469 274.921875 474.390625 C 273.140625 472.425781 271.410156 470.417969 269.726562 468.367188 C 268.046875 466.316406 266.414062 464.226562 264.835938 462.097656 C 263.253906 459.96875 261.730469 457.800781 260.257812 455.59375 C 258.78125 453.390625 257.363281 451.152344 256 448.875 C 254.636719 446.601562 253.332031 444.296875 252.082031 441.957031 C 250.832031 439.617188 249.640625 437.25 248.503906 434.851562 C 247.371094 432.457031 246.296875 430.03125 245.28125 427.582031 C 244.269531 425.132812 243.3125 422.660156 242.421875 420.164062 C 241.527344 417.664062 240.695312 415.148438 239.925781 412.613281 C 239.15625 410.074219 238.449219 407.519531 237.804688 404.945312 C 237.160156 402.375 236.578125 399.789062 236.0625 397.1875 C 235.546875 394.585938 235.09375 391.972656 234.703125 389.351562 C 234.3125 386.726562 233.988281 384.097656 233.730469 381.457031 C 233.46875 378.820312 233.273438 376.175781 233.144531 373.527344 C 233.015625 370.878906 232.949219 368.230469 232.949219 365.578125 C 232.949219 362.925781 233.015625 360.273438 233.144531 357.625 C 233.273438 354.976562 233.46875 352.335938 233.730469 349.695312 C 233.988281 347.054688 234.3125 344.425781 234.703125 341.800781 C 235.09375 339.179688 235.546875 336.566406 236.0625 333.964844 C 236.578125 331.367188 237.160156 328.78125 237.804688 326.207031 C 238.449219 323.636719 239.15625 321.078125 239.925781 318.542969 C 240.695312 316.003906 241.527344 313.488281 242.421875 310.992188 C 243.3125 308.496094 244.269531 306.019531 245.28125 303.570312 C 246.296875 301.121094 247.371094 298.699219 248.503906 296.300781 C 249.640625 293.902344 250.832031 291.535156 252.082031 289.195312 C 253.332031 286.859375 254.636719 284.550781 256 282.277344 C 257.363281 280.003906 258.78125 277.761719 260.257812 275.558594 C 261.730469 273.355469 263.253906 271.1875 264.835938 269.054688 C 266.414062 266.925781 268.046875 264.835938 269.726562 262.785156 C 271.410156 260.738281 273.140625 258.730469 274.921875 256.765625 C 276.703125 254.800781 278.53125 252.878906 280.40625 251.003906 C 282.28125 249.128906 284.203125 247.300781 286.167969 245.519531 C 288.132812 243.742188 290.136719 242.007812 292.1875 240.328125 C 294.238281 238.644531 296.328125 237.015625 298.457031 235.433594 C 300.585938 233.855469 302.753906 232.328125 304.960938 230.855469 C 307.164062 229.382812 309.402344 227.964844 311.679688 226.601562 C 313.953125 225.238281 316.257812 223.929688 318.597656 222.679688 C 320.9375 221.429688 323.304688 220.238281 325.703125 219.105469 C 328.097656 217.972656 330.523438 216.898438 332.972656 215.882812 C 335.421875 214.867188 337.894531 213.914062 340.390625 213.019531 C 342.890625 212.125 345.40625 211.292969 347.945312 210.523438 C 350.480469 209.753906 353.035156 209.046875 355.609375 208.402344 C 358.179688 207.757812 360.765625 207.179688 363.367188 206.660156 C 365.96875 206.144531 368.582031 205.691406 371.203125 205.300781 C 373.828125 204.914062 376.457031 204.589844 379.097656 204.328125 C 381.734375 204.070312 384.378906 203.875 387.027344 203.742188 C 389.675781 203.613281 392.328125 203.546875 394.976562 203.546875 C 397.628906 203.546875 400.28125 203.613281 402.929688 203.742188 C 405.578125 203.875 408.21875 204.070312 410.859375 204.328125 C 413.5 204.589844 416.128906 204.914062 418.753906 205.300781 C 421.375 205.691406 423.988281 206.144531 426.589844 206.660156 C 429.1875 207.179688 431.777344 207.757812 434.347656 208.402344 C 436.921875 209.046875 439.476562 209.753906 442.011719 210.523438 C 444.550781 211.292969 447.066406 212.125 449.5625 213.019531 C 452.058594 213.914062 454.535156 214.867188 456.984375 215.882812 C 459.433594 216.898438 461.855469 217.972656 464.253906 219.105469 C 466.652344 220.238281 469.019531 221.429688 471.359375 222.679688 C 473.695312 223.929688 476.003906 225.238281 478.277344 226.601562 C 480.550781 227.964844 482.792969 229.382812 484.996094 230.855469 C 487.199219 232.328125 489.367188 233.855469 491.5 235.433594 C 493.628906 237.015625 495.71875 238.644531 497.769531 240.328125 C 499.816406 242.007812 501.824219 243.742188 503.789062 245.519531 C 505.753906 247.300781 507.675781 249.128906 509.550781 251.003906 C 511.425781 252.878906 513.253906 254.800781 515.035156 256.765625 C 516.8125 258.730469 518.546875 260.738281 520.226562 262.785156 C 521.910156 264.835938 523.539062 266.925781 525.121094 269.054688 C 526.699219 271.1875 528.226562 273.355469 529.699219 275.558594 C 531.171875 277.761719 532.589844 280.003906 533.953125 282.277344 C 535.316406 284.550781 536.625 286.859375 537.875 289.195312 C 539.125 291.535156 540.316406 293.902344 541.449219 296.300781 C 542.582031 298.699219 543.65625 301.121094 544.671875 303.570312 C 545.6875 306.019531 546.640625 308.496094 547.535156 310.992188 C 548.429688 313.488281 549.261719 316.003906 550.03125 318.542969 C 550.800781 321.078125 551.507812 323.636719 552.152344 326.207031 C 552.796875 328.78125 553.375 331.367188 553.894531 333.964844 C 554.410156 336.566406 554.863281 339.179688 555.253906 341.800781 C 555.640625 344.425781 555.964844 347.054688 556.226562 349.695312 C 556.488281 352.335938 556.679688 354.976562 556.8125 357.625 C 556.941406 360.273438 557.007812 362.925781 557.007812 365.578125 Z M 557.007812 365.578125 " fill-opacity="1" fill-rule="nonzero"/></g><path fill="#25f4ee" d="M 373.46875 342.414062 L 373.46875 333.621094 C 370.519531 333.21875 367.527344 332.976562 364.476562 332.976562 C 327.6875 332.976562 297.761719 362.902344 297.761719 399.6875 C 297.761719 422.261719 309.042969 442.230469 326.25 454.316406 C 315.144531 442.390625 308.554688 426.421875 308.554688 408.882812 C 308.554688 372.625 337.414062 343.246094 373.46875 342.414062 Z M 373.46875 342.414062 " fill-opacity="1" fill-rule="nonzero"/><path fill="#25f4ee" d="M 375.039062 439.542969 C 391.453125 439.542969 405.035156 426.289062 405.640625 410.035156 L 405.78125 264.96875 L 432.082031 264.96875 C 432.082031 264.96875 432.039062 264.765625 432.039062 264.765625 C 431.492188 261.789062 431.191406 258.707031 431.191406 255.574219 L 394.949219 255.574219 L 394.890625 400.839844 C 394.289062 417.113281 380.894531 430.160156 364.476562 430.160156 C 359.371094 430.160156 354.578125 428.878906 350.347656 426.664062 C 355.886719 434.332031 364.878906 439.554688 375.050781 439.554688 Z M 375.039062 439.542969 " fill-opacity="1" fill-rule="nonzero"/><path fill="#25f4ee" d="M 481.632812 314.488281 L 481.632812 305.96875 C 471.503906 305.96875 462.078125 302.964844 454.167969 297.796875 C 461.203125 305.882812 470.769531 312.15625 481.632812 314.472656 Z M 481.632812 314.488281 " fill-opacity="1" fill-rule="nonzero"/><path fill="#fe2c55" d="M 454.167969 297.8125 C 446.457031 288.949219 441.765625 277.398438 441.765625 264.75 L 431.894531 264.75 C 434.457031 278.5625 442.816406 290.417969 454.167969 297.8125 Z M 454.167969 297.8125 " fill-opacity="1" fill-rule="nonzero"/><path fill="#fe2c55" d="M 364.476562 368.929688 C 347.671875 368.929688 333.804688 382.871094 333.804688 399.675781 C 333.804688 411.371094 340.636719 421.542969 350.335938 426.652344 C 346.722656 421.644531 344.566406 415.515625 344.566406 408.882812 C 344.566406 392.078125 358.234375 378.410156 375.039062 378.410156 C 378.171875 378.410156 381.179688 378.929688 384.027344 379.820312 L 384.027344 342.816406 C 381.078125 342.414062 378.085938 342.167969 375.039062 342.167969 C 374.503906 342.167969 373.988281 342.199219 373.46875 342.210938 L 373.324219 342.210938 C 373.324219 342.210938 373.222656 370.222656 373.222656 370.222656 C 370.375 369.332031 367.613281 368.945312 364.476562 368.945312 Z M 364.476562 368.929688 " fill-opacity="1" fill-rule="nonzero"/><path fill="#fe2c55" d="M 481.632812 314.054688 L 481.460938 314.027344 L 481.460938 342.011719 C 462.65625 342.011719 445.1875 335.824219 430.976562 325.625 L 430.976562 399.675781 C 430.976562 436.460938 401.265625 466.199219 364.476562 466.199219 C 350.261719 466.199219 337.082031 461.898438 326.234375 454.289062 C 338.421875 467.367188 355.789062 475.582031 375.039062 475.582031 C 411.824219 475.582031 441.75 445.65625 441.75 408.867188 L 441.75 335.207031 C 455.964844 345.40625 473.386719 351.417969 492.179688 351.417969 L 492.179688 315.179688 C 488.550781 315.179688 485.027344 314.789062 481.617188 314.054688 Z M 481.632812 314.054688 " fill-opacity="1" fill-rule="nonzero"/><path fill="#ffffff" d="M 431.191406 399.675781 L 431.191406 326.011719 C 445.40625 336.210938 462.828125 342.226562 481.617188 342.226562 L 481.617188 314.054688 C 470.753906 311.726562 461.203125 305.898438 454.152344 297.8125 C 442.800781 290.402344 434.601562 278.5625 432.039062 264.75 L 405.496094 264.75 L 405.4375 410.019531 C 404.832031 426.289062 391.4375 439.339844 375.023438 439.339844 C 364.851562 439.339844 355.859375 434.320312 350.320312 426.636719 C 340.625 421.527344 333.992188 411.371094 333.992188 399.660156 C 333.992188 382.855469 347.660156 369.1875 364.460938 369.1875 C 367.597656 369.1875 370.605469 369.707031 373.453125 370.597656 L 373.453125 342.183594 C 337.386719 343.03125 308.308594 372.597656 308.308594 408.867188 C 308.308594 426.40625 315.128906 442.375 326.222656 454.304688 C 337.054688 461.914062 350.234375 466.386719 364.460938 466.386719 C 401.25 466.386719 431.175781 436.460938 431.175781 399.675781 Z M 431.191406 399.675781 " fill-opacity="1" fill-rule="nonzero"/></svg>